<?xml version="1.0" encoding="utf-8"?>
<!-- Generator: Adobe Illustrator 27.9.0, SVG Export Plug-In . SVG Version: 6.00 Build 0)  -->
<svg version="1.1" id="Layer_1" xmlns="http://www.w3.org/2000/svg" xmlns:xlink="http://www.w3.org/1999/xlink" x="0px" y="0px"
	 viewBox="0 0 733.8 1080" style="enable-background:new 0 0 733.8 1080;" xml:space="preserve">
<style type="text/css">
	.st0{fill:#E2262C;}
</style>
<g>
	<path class="st0" d="M733.7,384.8c0-0.3,0-0.7-0.1-1c0-0.6-0.1-1.2-0.1-1.8c0-0.5-0.1-1-0.2-1.6c-0.1-0.4-0.1-0.9-0.2-1.3
		c-0.1-0.6-0.2-1.2-0.3-1.8c-0.1-0.4-0.1-0.8-0.2-1.1c-0.1-0.6-0.3-1.2-0.4-1.8c-0.1-0.4-0.2-0.7-0.2-1.1c-0.1-0.6-0.3-1.2-0.5-1.7
		c-0.1-0.4-0.2-0.8-0.3-1.1c-0.2-0.5-0.3-1.1-0.5-1.6c-0.1-0.4-0.3-0.8-0.4-1.2c-0.2-0.5-0.4-1-0.5-1.4c-0.2-0.5-0.3-0.9-0.5-1.4
		c-0.2-0.4-0.3-0.8-0.5-1.2c-0.2-0.5-0.5-1-0.7-1.5c-0.2-0.4-0.3-0.7-0.5-1c-0.3-0.5-0.5-1.1-0.8-1.6c-0.2-0.3-0.3-0.6-0.5-0.9
		c-0.3-0.6-0.6-1.1-1-1.7c-0.2-0.3-0.3-0.5-0.5-0.8c-0.3-0.5-0.7-1.1-1.1-1.6c-0.2-0.3-0.4-0.6-0.6-0.8c-0.4-0.5-0.7-1-1.1-1.5
		c-0.2-0.3-0.5-0.6-0.8-1c-0.3-0.5-0.7-0.9-1-1.3c-0.4-0.5-0.8-0.9-1.1-1.3c-0.3-0.3-0.5-0.6-0.8-0.9c-1.3-1.5-2.8-2.9-4.2-4.2
		c-0.3-0.3-0.6-0.5-0.9-0.8c-0.5-0.4-0.9-0.8-1.4-1.2c-0.4-0.4-0.9-0.7-1.3-1c-0.3-0.3-0.7-0.5-1-0.8c-0.5-0.4-1-0.7-1.5-1.1
		c-0.3-0.2-0.6-0.4-0.9-0.6c-0.5-0.4-1.1-0.7-1.6-1c-0.3-0.2-0.6-0.4-0.9-0.5c-0.5-0.3-1.1-0.6-1.6-0.9c-0.3-0.2-0.7-0.4-1-0.5
		c-0.5-0.3-1-0.5-1.5-0.8c-0.4-0.2-0.7-0.4-1.1-0.5c-0.5-0.2-1-0.4-1.4-0.6c-0.4-0.2-0.9-0.4-1.3-0.6c-0.4-0.2-0.9-0.3-1.3-0.5
		c-0.5-0.2-1-0.4-1.5-0.6c-0.4-0.1-0.8-0.3-1.1-0.4c-0.6-0.2-1.1-0.4-1.7-0.5c-0.3-0.1-0.7-0.2-1-0.3c-0.6-0.2-1.2-0.3-1.8-0.5
		c-0.3-0.1-0.6-0.1-1-0.2c-0.6-0.1-1.3-0.3-1.9-0.4c-0.3-0.1-0.7-0.1-1-0.2c-0.5-0.1-1-0.2-1.5-0.3c-0.1,0-0.2,0-0.4,0
		c-0.4-0.1-0.8-0.1-1.1-0.1c-0.6-0.1-1.2-0.1-1.8-0.2c-0.5,0-1-0.1-1.5-0.1c-0.5,0-0.9-0.1-1.4-0.1c-1,0-2-0.1-3-0.1l0,0H413.5
		c-33.3,0-60.3,27-60.3,60.3s27,60.3,60.3,60.3h114.4L377.7,598.4c-23.5,23.5-23.5,61.7,0,85.3c11.8,11.8,27.2,17.7,42.6,17.7
		s30.9-5.9,42.6-17.7l150.2-150.2v238.2H448.5c-179.5,0-325.6-146-325.6-325.6c0-179.5,146-325.5,325.6-325.5h225
		c33.3,0,60.3-27,60.3-60.3c0-33.3-27-60.3-60.3-60.3h-225C202.4,0,2.3,200.1,2.3,446.2s200.1,446.2,446.2,446.2h225
		c33.3,0,60.3-27,60.3-60.3l0,0l0,0V388c0-1,0-2-0.1-3.1C733.7,384.9,733.7,384.8,733.7,384.8z"/>
	<g>
		<g>
			<path class="st0" d="M148.4,1006c0,43.3-28.3,74-69.7,74c-40.5,0-70.5-29.1-70.5-69.4c0-40.2,29.4-69.6,70.2-69.6
				c34.7,0,63,21.7,68.6,52.4h-38.2c-4.8-11.1-16.6-18.3-30.1-18.3c-19.8,0-33.2,14.3-33.2,35.5c0,20.9,13.1,35.2,33.2,35.2
				c13.9,0,25.8-6.7,30-16.9H75.9v-23L148.4,1006z"/>
			<path class="st0" d="M173.5,944.4h23.6c3.7,0,6.7,3,6.7,6.7v119c0,3.7-3,6.7-6.7,6.7h-23.6c-3.7,0-6.7-3-6.7-6.7V951
				C166.8,947.3,169.8,944.4,173.5,944.4z"/>
			<path class="st0" d="M351.2,1010.4c0,38.6-28.4,66.3-68.3,66.3h-46.2c-4.1,0-7.4-3.3-7.4-7.4V951.7c0-4.1,3.3-7.4,7.4-7.4h46.2
				C323,944.4,351.2,971.7,351.2,1010.4z M313.9,1010.4c0-19.6-13.1-32.7-32.6-32.7h-7.8c-4.1,0-7.4,3.3-7.4,7.4v50.8
				c0,4.1,3.3,7.4,7.4,7.4h7.8C300.8,1043.3,313.9,1029.9,313.9,1010.4z"/>
			<path class="st0" d="M456.4,1049.1v23.5c0,2.2-1.8,4.1-4,4.1h-78.2c-2.2,0-4-1.8-4-4.1V948.4c0-2.2,1.8-4,4-4h76.6
				c2.2,0,4,1.8,4,4v23.4c0,2.2-1.8,4-4,4h-40.3c-2.2,0-4,1.8-4,4v11.4c0,2.2,1.8,4,4,4h35.4c2.2,0,4,1.8,4,4v21.8c0,2.2-1.8,4-4,4
				h-35.4c-2.2,0-4,1.8-4,4.1v11.7c0,2.2,1.8,4.1,4,4.1h41.9C454.6,1045,456.4,1046.9,456.4,1049.1z"/>
			<path class="st0" d="M474.3,1044h34.1v32.7h-34.1V1044z"/>
			<path class="st0" d="M607.6,1055.2h-39.3c-2.3,0-4.3,1.4-5,3.6l-4.9,14.3c-0.7,2.2-2.8,3.6-5,3.6H526c-3.8,0-6.3-3.8-5-7.3
				l47.8-121.6c0.8-2,2.8-3.4,5-3.4h28.4c2.2,0,4.1,1.3,5,3.3l48.8,121.6c1.4,3.5-1.2,7.3-5,7.3h-28.4c-2.3,0-4.3-1.5-5-3.6
				l-4.8-14.2C612,1056.6,609.9,1055.2,607.6,1055.2z M582.9,999.8l-7,19.7c-1.2,3.5,1.3,7.1,5,7.1h14c3.7,0,6.3-3.7,5-7.1l-7-19.7
				C591.3,995.1,584.6,995.1,582.9,999.8z"/>
			<path class="st0" d="M676.7,944.4h26.8c2.8,0,5,2.3,5,5v122.2c0,2.8-2.3,5.1-5,5.1h-26.8c-2.8,0-5-2.3-5-5.1V949.4
				C671.6,946.6,673.9,944.4,676.7,944.4z"/>
		</g>
	</g>
</g>
</svg>
